<svg width="74" height="19" viewBox="0 0 74 19" fill="none" xmlns="http://www.w3.org/2000/svg">
<g id="Alipay" clip-path="url(#clip0_23_1126)">
<path id="Vector" d="M73.9823 5.1452L73.9998 5.12598H71.2349L69.4889 11.1783H69.3963L67.3917 5.12598H64.106L68.0593 15.1142L66.4077 18.1587V18.2321H68.9873L73.9823 5.1452Z" fill="black"/>
<path id="Vector_2" d="M43.3311 5.12598H40.3984V15.0775H43.3311V5.12598Z" fill="black"/>
<path id="Vector_3" d="M63.5293 12.5889V8.43104C63.5293 6.166 62.1923 4.92163 59.8346 4.92163C58.3299 4.92163 57.2917 5.18204 55.3972 5.75704L55.9163 8.0413C57.643 7.26182 58.4033 6.92801 59.202 6.92801C60.1667 6.92801 60.5949 7.61486 60.5949 8.67397V8.74738C57.234 9.37831 56.1941 9.73134 55.5457 10.3815C55.0634 10.8639 54.8589 11.5507 54.8589 12.3494C54.8589 14.2614 56.3444 15.2821 57.7356 15.2821C58.7755 15.2821 59.6109 14.8923 60.7434 14.0377L60.9479 15.0776H63.8806L63.5293 12.5889ZM60.5966 12.664C59.8172 13.0904 59.3715 13.2582 58.8524 13.2582C58.1463 13.2582 57.7007 12.7933 57.7007 12.0523C57.7007 11.7744 57.7566 11.4948 57.9786 11.2728C58.3316 10.9198 59.0185 10.6594 60.5966 10.2889V12.664Z" fill="black"/>
<path id="Vector_4" d="M50.6279 4.92163C49.5513 4.92163 48.7159 5.33059 47.7686 6.11007V5.12612H44.8359V18.2322H47.7686V14.9832C48.3261 15.1318 48.8452 15.2069 49.4761 15.2069C52.0942 15.2069 54.4519 13.2757 54.4519 9.84145C54.4519 6.76023 52.7443 4.92163 50.6279 4.92163ZM48.77 13.3683C48.4362 13.3683 48.1199 13.3316 47.7669 13.2198V7.83682C48.3803 7.41038 48.8801 7.2059 49.5111 7.2059C50.6069 7.2059 51.479 8.078 51.479 9.93582C51.4808 12.311 50.1997 13.3683 48.77 13.3683Z" fill="black"/>
<path id="Vector_5" d="M15.5389 0H2.96413C1.32652 0 0 1.33875 0 2.98859V15.67C0 17.3199 1.32652 18.6586 2.96413 18.6586H15.5389C17.1765 18.6586 18.5013 17.3199 18.5013 15.67V2.98859C18.5031 1.337 17.1765 0 15.5389 0Z" fill="#44A0E3"/>
<path id="Vector_6" d="M15.2332 11.7166C14.4939 11.4666 13.4994 11.0839 12.3931 10.6802C13.0573 9.51445 13.5886 8.18793 13.9381 6.74606H10.2906V5.4213H14.7578V4.68201H10.2906V2.4729H8.46777C8.14794 2.4729 8.14794 2.79099 8.14794 2.79099V4.68026H3.6301V5.41955H8.14794V6.74432H4.41657V7.4836H11.6521C11.3882 8.4029 11.0317 9.26802 10.6105 10.0527C8.26329 9.27151 5.75706 8.63884 4.18412 9.02858C3.17744 9.2785 2.52904 9.72417 2.14803 10.1926C0.400319 12.337 1.65343 15.5947 5.3446 15.5947C7.5275 15.5947 9.63 14.3678 11.2589 12.3457C13.6899 13.5237 18.5014 15.5476 18.5014 15.5476V12.6638C18.5031 12.6638 17.8984 12.6149 15.2332 11.7166ZM5.0003 14.3486C2.12182 14.3486 1.27068 12.0626 2.69332 10.8113C3.1687 10.3883 4.03557 10.1821 4.49696 10.1366C6.20623 9.9671 7.78966 10.6242 9.65796 11.5435C8.34543 13.2703 6.67287 14.3486 5.0003 14.3486Z" fill="white"/>
<path id="Vector_7" d="M30.3178 1.98901H26.3819L21.9829 15.0777H24.6936L25.4364 12.5155H30.0958L30.8019 15.0777H34.2728L30.3178 1.98901ZM26.0481 10.3798L27.7923 4.34668H27.8657L29.5173 10.3798H26.0481Z" fill="black"/>
<path id="Vector_8" d="M38.3921 1.52393H35.4595V15.0757H38.3921V1.52393Z" fill="black"/>
<path id="Vector_9" d="M40.1748 2.73159C40.1748 3.69633 40.8809 4.34648 41.8648 4.34648C42.8488 4.34648 43.5549 3.69633 43.5549 2.73159C43.5549 1.78433 42.8488 1.1167 41.8648 1.1167C40.8809 1.1167 40.1748 1.78433 40.1748 2.73159Z" fill="#44A0E3"/>
</g>
<defs>
<clipPath id="clip0_23_1126">
<rect width="74" height="18.6586" fill="white"/>
</clipPath>
</defs>
</svg>
