<svg width="73" height="15" viewBox="0 0 73 15" fill="none" xmlns="http://www.w3.org/2000/svg">
<g id="amazon">
<path id="Combined Shape" fill-rule="evenodd" clip-rule="evenodd" d="M42.1221 8.23246H40.7208C40.5825 8.22504 40.4736 8.10937 40.4718 7.96803V0.596489C40.4867 0.456529 40.6041 0.351546 40.7419 0.355008H42.0462C42.165 0.3589 42.2667 0.443051 42.2951 0.560903V1.68824H42.3225C42.7158 0.680373 43.2671 0.199951 44.2379 0.199951C44.8676 0.199951 45.4824 0.432536 45.8794 1.06801C46.2466 1.65774 46.2466 2.65035 46.2466 3.36336V8.00108C46.226 8.1364 46.1106 8.23529 45.9765 8.23246H44.5627C44.4359 8.22685 44.3311 8.12948 44.3138 8.00108V3.99884C44.3138 3.93636 44.3143 3.87162 44.3149 3.80537V3.80477C44.3217 3.01671 44.3303 2.01361 43.4339 2.01361C43.073 2.03065 42.7549 2.26108 42.6199 2.60333C42.4233 3.05325 42.3972 3.50317 42.3972 4.00138V7.96803C42.3918 8.11766 42.27 8.23527 42.1234 8.23246H42.1221ZM36.1856 0.210121C38.2727 0.210121 39.4015 2.0403 39.4015 4.36615C39.4015 6.61447 38.157 8.39762 36.1856 8.39762C34.1383 8.39762 33.0232 6.56744 33.0232 4.28862C33.0232 2.0098 34.152 0.210121 36.1856 0.210121ZM36.1993 1.71493C35.1626 1.71493 35.0966 3.15619 35.0966 4.05603V4.08585C35.0965 4.99758 35.0962 6.87756 36.1856 6.87756C37.287 6.87756 37.3281 5.32699 37.3281 4.3814C37.3281 3.76117 37.302 3.01639 37.1178 2.42794C36.9597 1.91955 36.6448 1.71493 36.1993 1.71493ZM10.2043 8.24772H8.79918C8.66884 8.24074 8.56303 8.13755 8.55027 8.00489V0.633346C8.555 0.485627 8.67438 0.368798 8.8191 0.370258H10.1296C10.2639 0.377823 10.3711 0.487319 10.3785 0.624449V1.58656H10.4047C10.7457 0.654952 11.3891 0.221556 12.2553 0.221556C13.1215 0.221556 13.6853 0.654952 14.0798 1.58656C14.3432 0.869621 14.9647 0.353448 15.7057 0.23624C16.4467 0.119032 17.192 0.419009 17.6554 1.02099C18.0377 1.55168 18.0255 2.29081 18.014 2.98519V2.98521V2.98523V2.98525V2.98527V2.98529V2.9853V2.98532C18.012 3.10242 18.0101 3.21825 18.0101 3.33159V7.98202C18.0088 8.05404 17.9795 8.12257 17.9285 8.17242C17.8776 8.22228 17.8093 8.24935 17.7388 8.24772H16.3337C16.1955 8.24029 16.0866 8.12463 16.0848 7.98329V4.07637C16.0848 4.01719 16.0858 3.94109 16.0868 3.85461V3.85459V3.85456V3.85454V3.85451V3.85449V3.85446V3.85444C16.0914 3.48771 16.0983 2.93467 16.045 2.69611C15.9404 2.20044 15.6256 2.06063 15.2186 2.06063C14.8456 2.07227 14.5152 2.30969 14.3785 2.66433C14.2445 3.01128 14.2456 3.56971 14.2465 3.98352L14.2466 4.07637V7.98202C14.2453 8.05382 14.2161 8.12215 14.1654 8.17197C14.1148 8.22178 14.0468 8.24901 13.9765 8.24772H12.5677C12.4297 8.23968 12.3212 8.12437 12.3188 7.98329V4.07637C12.3188 3.99631 12.32 3.91256 12.3212 3.8266C12.3324 3.02969 12.3463 2.04284 11.4476 2.04284C10.4755 2.04284 10.4762 3.16601 10.4768 4.01523L10.4768 4.07637V7.98202C10.4755 8.05404 10.4462 8.12257 10.3953 8.17242C10.3443 8.22228 10.2761 8.24935 10.2055 8.24772H10.2043ZM6.02134 8.33789C6.12808 8.39928 6.26109 8.38554 6.35364 8.30357L6.36484 8.30611C6.64486 8.05065 7.15513 7.59819 7.44262 7.35289C7.55214 7.25757 7.53223 7.0987 7.44262 6.97161C7.41527 6.93315 7.38774 6.89545 7.36037 6.85798C7.12995 6.54251 6.9112 6.24301 6.9112 5.64092V3.4053C6.9112 3.33309 6.91155 3.26132 6.9119 3.19005C6.91617 2.32673 6.92007 1.53674 6.28892 0.933293C5.75127 0.404575 4.85768 0.219015 4.17318 0.219015C2.83528 0.219015 1.34182 0.728669 1.02943 2.4165C1.01648 2.48481 1.03152 2.55555 1.07103 2.61223C1.11054 2.66892 1.17108 2.70658 1.23852 2.71644L2.59011 2.86769C2.7221 2.84725 2.82419 2.73882 2.83902 2.60333C2.956 2.0225 3.43391 1.74162 3.97032 1.74162C4.26154 1.74162 4.58761 1.84965 4.75936 2.11401C4.93563 2.37946 4.93289 2.73172 4.93043 3.04811C4.93015 3.08468 4.92987 3.12077 4.92987 3.1562V3.34176C4.80225 3.35648 4.6685 3.37042 4.53074 3.38479L4.53067 3.38479L4.53056 3.3848L4.53045 3.38482L4.53033 3.38483L4.53025 3.38484L4.53019 3.38484L4.53015 3.38485L4.53012 3.38485L4.53012 3.38485C3.78806 3.46221 2.92973 3.55169 2.28643 3.83997C1.41525 4.22888 0.792969 5.02069 0.792969 6.18616C0.792969 7.67826 1.71394 8.42431 2.89751 8.42431C3.89689 8.42431 4.44325 8.1841 5.21611 7.38086C5.25338 7.43626 5.28699 7.48747 5.31871 7.53578L5.31871 7.53578C5.50308 7.81665 5.62313 7.99955 6.02134 8.33789ZM4.93613 4.87296L4.93609 4.80336V4.49452C3.91929 4.49452 2.84524 4.71693 2.84524 5.93959C2.84524 6.56236 3.16011 6.98178 3.699 6.98178C4.09477 6.98178 4.44947 6.73267 4.67349 6.32851C4.93704 5.84988 4.93663 5.4016 4.93613 4.87296V4.87296ZM25.8695 6.96652C25.8421 6.92801 25.8145 6.89025 25.7871 6.85273C25.5567 6.53733 25.3381 6.23795 25.3381 5.6371V3.40022C25.3381 3.32402 25.3385 3.24833 25.3389 3.17321V3.17293V3.17265V3.17238V3.17211V3.17184V3.17157V3.17131C25.3438 2.3124 25.3482 1.52854 24.7158 0.928208C24.1769 0.39949 23.2833 0.21393 22.6 0.21393C21.2621 0.21393 19.7687 0.722313 19.4551 2.41141C19.4417 2.4801 19.4567 2.55136 19.4966 2.60838C19.5364 2.66539 19.5975 2.70311 19.6654 2.71263L21.0282 2.8626C21.16 2.84175 21.2618 2.73354 21.2771 2.59824C21.3953 2.01742 21.8707 1.73654 22.4071 1.73654C22.6971 1.73654 23.0294 1.84584 23.1962 2.1102C23.3737 2.37466 23.3709 2.72705 23.3685 3.04357C23.3682 3.07995 23.3679 3.11586 23.3679 3.15111V3.33286C23.2427 3.34711 23.1116 3.36064 22.9766 3.37457C22.2323 3.45136 21.3692 3.54042 20.7245 3.8298C19.8434 4.21871 19.2248 5.01052 19.2248 6.17726C19.2248 7.66809 20.1458 8.41414 21.3294 8.41414C22.325 8.41414 22.8751 8.17393 23.6467 7.37069C23.6834 7.42517 23.7165 7.47553 23.7477 7.52299L23.7478 7.52319C23.9348 7.80771 24.0533 7.98792 24.4532 8.32771C24.5598 8.38869 24.6924 8.37551 24.7855 8.29467C25.0655 8.04048 25.5758 7.58675 25.8633 7.34145C25.984 7.25376 25.9641 7.0987 25.8695 6.96652ZM23.1066 6.32215C22.8838 6.72504 22.5279 6.97415 22.1333 6.97415C21.5944 6.97415 21.2796 6.55473 21.2796 5.93323C21.2796 4.7093 22.3536 4.48816 23.3704 4.48816V4.79827L23.3704 4.85526C23.3708 5.39051 23.371 5.84091 23.1066 6.32215ZM27.0593 1.65774V0.607932C27.056 0.536059 27.0827 0.466133 27.1328 0.415499C27.1828 0.364865 27.2515 0.338267 27.3219 0.342302H31.9429C32.0132 0.339871 32.0814 0.366864 32.1316 0.417022C32.1819 0.467181 32.21 0.536148 32.2093 0.607932V1.51158C32.2093 1.66283 32.0848 1.8611 31.862 2.17375L29.4675 5.6638C30.3561 5.64219 31.2957 5.77818 32.1035 6.24208C32.2526 6.32331 32.3477 6.48003 32.3524 6.6526V7.78121C32.3524 7.93627 32.1868 8.11547 32.0114 8.02269C30.4785 7.21811 28.659 7.22143 27.129 8.03159C26.9684 8.11928 26.8004 7.94262 26.8004 7.78757V6.71361C26.7857 6.46045 26.8455 6.20859 26.9722 5.99043L29.7463 1.92337H27.3269C27.2564 1.92616 27.1879 1.89932 27.1373 1.84913C27.0868 1.79893 27.0586 1.72976 27.0593 1.65774ZM51.4837 1.27899C51.8369 0.960922 52.2405 0.706494 52.6772 0.526587C53.0898 0.358647 53.5299 0.272383 53.974 0.272396C54.4155 0.264005 54.8534 0.354229 55.2571 0.536755C55.6376 0.714891 55.9709 0.983319 56.2291 1.31966C56.5104 1.69228 56.7183 2.11697 56.8415 2.57028C56.9907 3.10755 57.0628 3.6641 57.0555 4.22253C57.0623 4.79283 56.9851 5.36094 56.8265 5.90782C56.6938 6.37187 56.4763 6.80611 56.1856 7.18767C55.9156 7.53457 55.5728 7.81515 55.1825 8.00871C54.7723 8.20314 54.3241 8.29921 53.872 8.28959C53.027 8.30386 52.2092 7.98525 51.5882 7.39992V10.9281C51.6001 11.0111 51.5728 11.095 51.5147 11.1543C51.4566 11.2136 51.3745 11.2414 51.2932 11.2293H50.4221C50.3408 11.2414 50.2586 11.2136 50.2005 11.1543C50.1425 11.095 50.1152 11.0111 50.1271 10.9281V0.797301C50.1158 0.714404 50.1432 0.630883 50.2011 0.571698C50.2591 0.512513 50.3409 0.48452 50.4221 0.496084H51.0705C51.1551 0.488002 51.2392 0.515613 51.3034 0.572505C51.3676 0.629396 51.4062 0.710617 51.4102 0.797301L51.4837 1.27899ZM53.5621 1.47471C52.8475 1.48048 52.1542 1.72362 51.587 2.16739V6.36154C52.2159 6.84451 52.8643 7.08557 53.5322 7.08472C54.8879 7.08472 55.5658 6.15268 55.5658 4.28861C55.5658 2.42454 54.8979 1.48615 53.5621 1.47344V1.47471ZM58.8962 1.84584L59.007 1.80771C59.708 1.58722 60.4366 1.47163 61.17 1.46455C61.7599 1.4654 62.1727 1.57597 62.4084 1.79627C62.644 2.01657 62.7618 2.39786 62.7618 2.94013V3.92894C62.1548 3.76991 61.5315 3.68459 60.9049 3.67475C60.0404 3.6739 59.3526 3.89208 58.8415 4.32929C58.3304 4.7665 58.0748 5.35114 58.0748 6.08321C58.0765 6.76529 58.2839 7.30968 58.6971 7.71639C59.1103 8.12309 59.6703 8.32644 60.3772 8.32644C60.8144 8.32459 61.2472 8.23834 61.6529 8.07225C62.0808 7.90167 62.4769 7.65751 62.824 7.35035L62.8987 7.84729C62.9024 7.92983 62.9392 8.0072 63.0003 8.06127C63.0615 8.11534 63.1418 8.14137 63.2223 8.13326H63.857C63.9382 8.14482 64.02 8.11683 64.0779 8.05765C64.1359 7.99846 64.1633 7.91494 64.152 7.83204V2.68975C64.1511 1.86618 63.9296 1.25908 63.4874 0.868475C63.0452 0.477868 62.3573 0.282564 61.4239 0.282564C60.9594 0.282564 60.4958 0.325141 60.0387 0.40966C59.6398 0.474755 59.2494 0.586045 58.8751 0.741379C58.7845 0.772668 58.7035 0.827408 58.6398 0.900249C58.5915 0.989753 58.5707 1.09207 58.5801 1.19384V1.59673C58.5801 1.77848 58.6473 1.86872 58.7718 1.86872C58.8142 1.86806 58.8562 1.86034 58.8962 1.84584ZM61.7487 7.00465C61.4233 7.12882 61.0793 7.19461 60.7319 7.19911C60.3486 7.19995 60.0537 7.09743 59.8471 6.89153C59.6405 6.68564 59.5372 6.39205 59.5372 6.01076C59.5363 5.13719 60.0918 4.70041 61.2036 4.70041C61.4671 4.70096 61.7302 4.71879 61.9914 4.75379C62.2517 4.78729 62.5101 4.8348 62.7655 4.89613V6.43272C62.4568 6.67464 62.114 6.86747 61.7487 7.00465ZM68.0263 10.9573C68.3747 10.6557 68.6822 10.1587 68.9485 9.4665L72.1918 1.03751C72.2454 0.923344 72.2803 0.800983 72.2951 0.675291C72.2951 0.555822 72.2266 0.494816 72.0885 0.494816H71.2634C71.15 0.483715 71.0362 0.509995 70.9385 0.569802C70.8553 0.664731 70.7952 0.778386 70.763 0.901522L68.7718 6.74157L66.707 0.901522C66.6749 0.778386 66.6148 0.664731 66.5316 0.569802C66.4339 0.509995 66.3201 0.483715 66.2067 0.494816H65.3219C65.185 0.494816 65.1165 0.555822 65.1165 0.675291C65.1307 0.800965 65.1652 0.923367 65.2186 1.03751L68.0586 8.20698L67.7786 8.96955C67.6118 9.45167 67.4251 9.78296 67.2186 9.96344C66.9697 10.1582 66.6602 10.2543 66.3474 10.2342C66.2144 10.237 66.0814 10.2268 65.9504 10.2037C65.8774 10.1877 65.8033 10.1779 65.7288 10.1744C65.5807 10.1744 65.5073 10.2697 65.5073 10.4604V10.8518C65.4991 10.9597 65.5248 11.0675 65.5807 11.1594C65.642 11.2325 65.7251 11.2829 65.8172 11.303C66.0912 11.3769 66.3738 11.4124 66.6573 11.4085C67.2215 11.4094 67.6778 11.259 68.0263 10.9573Z" fill="#232F3E"/>
<path id="Shape" fill-rule="evenodd" clip-rule="evenodd" d="M29.3706 12.9349C29.6904 12.1228 30.4023 10.3028 30.0638 9.86174H30.0663C29.7293 9.41977 27.8375 9.65171 26.9866 9.75603L26.9848 9.75625C26.7259 9.78803 26.6861 9.55799 26.9188 9.39149C28.4297 8.30737 30.9051 8.61748 31.1926 8.98351C31.4801 9.34955 31.1142 11.8838 29.6992 13.0938C29.4814 13.2793 29.2735 13.1802 29.3706 12.9349ZM19.2038 14.1881C22.4944 14.1881 26.3264 13.1268 28.9661 11.1378V11.1416C29.4029 10.8061 29.0283 10.3129 28.5828 10.5061C25.7015 11.7472 22.6085 12.3951 19.4814 12.4126C15.1428 12.4126 10.9462 11.1975 7.55107 9.18051C7.25362 9.00385 7.03209 9.31523 7.281 9.54273C10.5496 12.5543 14.8016 14.211 19.2038 14.1881Z" fill="#FF9900"/>
</g>
</svg>
