<svg width="53" height="52" viewBox="0 0 53 52" fill="none" xmlns="http://www.w3.org/2000/svg">
<g id="mdi:comment-question-outline">
<path id="Vector" d="M8.6864 4.33337C7.53453 4.33337 6.42983 4.78992 5.61534 5.60258C4.80084 6.41524 4.34326 7.51744 4.34326 8.66671V34.6667C4.34326 35.816 4.80084 36.9182 5.61534 37.7308C6.42983 38.5435 7.53453 39 8.6864 39H17.3727V45.5C17.3727 46.0747 17.6015 46.6258 18.0087 47.0321C18.416 47.4384 18.9683 47.6667 19.5442 47.6667H20.63C21.1729 47.6667 21.7158 47.45 22.1501 47.0384L30.1849 39H43.4315C44.5834 39 45.6881 38.5435 46.5026 37.7308C47.3171 36.9182 47.7746 35.816 47.7746 34.6667V8.66671C47.7746 7.51744 47.3171 6.41524 46.5026 5.60258C45.6881 4.78992 44.5834 4.33337 43.4315 4.33337H8.6864ZM8.6864 8.66671H43.4315V34.6667H28.4042L21.7158 41.34V34.6667H8.6864V8.66671ZM26.4715 11.9167C24.5388 11.9167 22.997 12.3067 21.8244 13.0867C20.63 13.8667 20.022 15.1667 20.1306 16.6617H24.4086C24.4086 16.055 24.6257 15.6 24.9732 15.2967C25.4075 14.9934 25.8852 14.8417 26.4715 14.8417C27.1447 14.8417 27.7311 15.015 28.1219 15.405C28.5128 15.7734 28.7083 16.25 28.7083 16.9C28.7083 17.5067 28.5345 18.0484 28.2305 18.5034C27.8613 18.98 27.4053 19.37 26.8407 19.6734C25.7115 20.3667 24.9732 20.9734 24.5171 21.4934C24.1045 22.0134 23.8874 22.75 23.8874 23.8334H28.2305C28.2305 23.2267 28.3391 22.75 28.5345 22.36C28.73 21.9917 29.0991 21.6667 29.6637 21.3417C30.6627 20.8867 31.4879 20.28 32.1176 19.5C32.7474 18.6984 33.0731 17.8534 33.0731 16.9C33.0731 15.3834 32.4868 14.17 31.3141 13.26C30.1415 12.3717 28.5128 11.9167 26.4715 11.9167ZM23.8874 26V30.3334H28.2305V26H23.8874Z" fill="#09A4DD"/>
</g>
</svg>
