<svg width="84" height="58" viewBox="0 0 84 58" fill="none" xmlns="http://www.w3.org/2000/svg">
<rect x="0.5" y="0.5" width="83" height="57" rx="3.5" fill="white" stroke="#F3F3F3"/>
<path fill-rule="evenodd" clip-rule="evenodd" d="M52.7429 32.1331H48.7519V42.6554H50.4731V39.198H52.7429C54.0908 39.198 55.1279 38.8925 55.8545 38.2811C56.5809 37.6698 56.9442 36.798 56.9442 35.6655C56.9442 34.5282 56.5798 33.655 55.8507 33.0462C55.1218 32.4375 54.0858 32.1331 52.7429 32.1331ZM54.5542 37.1612C54.1334 37.487 53.482 37.6498 52.6001 37.6498H50.4731V33.6813H52.6001C53.477 33.6813 54.127 33.8418 54.5504 34.1624C54.9738 34.4831 55.1857 34.9866 55.1857 35.6731C55.1857 36.3395 54.9751 36.8356 54.5542 37.1612ZM10 32.1352H12.0814L15.6208 38.5374L19.1601 32.1352H21.1965V42.6553H19.4983V34.5924L16.3948 40.1756H14.8018L11.6983 34.5924V42.6553H10V32.1352ZM26.6745 42.8432C25.8878 42.8432 25.1965 42.6691 24.6003 42.3209C24.0042 41.9728 23.5396 41.4906 23.2065 40.8744C22.8733 40.2583 22.7067 39.5519 22.7067 38.7554C22.7067 37.9488 22.8695 37.235 23.1951 36.6137C23.5208 35.9926 23.9729 35.5067 24.5516 35.1559C25.1302 34.8053 25.7951 34.6299 26.5467 34.6299C27.293 34.6299 27.9355 34.8065 28.4742 35.1597C29.0124 35.5128 29.4272 36.0076 29.7178 36.6438C30.008 37.28 30.1536 38.0265 30.1536 38.8831V39.349H24.39C24.4952 39.9902 24.7544 40.4949 25.1678 40.8631C25.5809 41.2314 26.1033 41.4155 26.7345 41.4155C27.2404 41.4155 27.6762 41.3404 28.042 41.1901C28.4075 41.0397 28.7509 40.8119 29.0714 40.5062L29.9732 41.6109C29.0763 42.4325 27.9767 42.8432 26.6745 42.8432ZM27.9141 36.6024C27.5586 36.2393 27.0926 36.0576 26.5165 36.0576C25.9556 36.0576 25.4857 36.2431 25.1075 36.6137C24.7292 36.9845 24.4901 37.4829 24.39 38.1091H28.5229C28.4729 37.4679 28.2697 36.9657 27.9141 36.6024ZM30.6497 36.2079H32.2126V39.9276C32.2126 41.8614 33.0967 42.8282 34.8652 42.8282C35.1208 42.8282 35.3649 42.8106 35.5979 42.7756C35.8309 42.7404 36.0401 42.6955 36.2255 42.6403V41.2652C36.045 41.2953 35.8795 41.3191 35.7293 41.3366C35.5791 41.3541 35.3961 41.3628 35.1809 41.3628C34.695 41.3628 34.3516 41.2377 34.1515 40.9871C33.9509 40.7367 33.8508 40.3184 33.8508 39.7322V36.2079H36.2255V34.8178H33.8508V32.5184H32.2126V34.8178H30.6497V36.2079ZM44.762 42.6553H43.1538V41.5582C42.8682 41.969 42.5051 42.2859 42.0643 42.5089C41.6233 42.7317 41.1224 42.8432 40.5612 42.8432C39.8701 42.8432 39.2576 42.6666 38.7242 42.3135C38.1907 41.9603 37.7709 41.4744 37.4654 40.8556C37.1597 40.237 37.0071 39.5293 37.0071 38.7329C37.0071 37.9313 37.1624 37.2224 37.4728 36.6062C37.7834 35.99 38.2131 35.5067 38.7615 35.1559C39.3102 34.8053 39.9401 34.6299 40.6515 34.6299C41.1874 34.6299 41.6684 34.734 42.0942 34.9418C42.5201 35.1497 42.8732 35.4441 43.1538 35.8247V34.8178H44.762V42.6553ZM43.1239 37.5606C42.9485 37.1148 42.6717 36.7628 42.2935 36.5048C41.9152 36.2468 41.478 36.1178 40.9821 36.1178C40.2806 36.1178 39.7223 36.3534 39.3064 36.8242C38.8905 37.2951 38.6827 37.9313 38.6827 38.7329C38.6827 39.5394 38.883 40.1781 39.2839 40.649C39.6847 41.1199 40.2281 41.3553 40.9146 41.3553C41.4205 41.3553 41.8712 41.2251 42.2672 40.9646C42.6629 40.7042 42.9485 40.3535 43.1239 39.9125V37.5606ZM65.2942 42.6554H63.6861V41.558C63.4002 41.9689 63.0371 42.2859 62.596 42.5088C62.1552 42.7317 61.6541 42.8432 61.0929 42.8432C60.4015 42.8432 59.7891 42.6666 59.2553 42.3134C58.7218 41.9601 58.302 41.4742 57.9966 40.8553C57.6908 40.2365 57.538 39.5288 57.538 38.732C57.538 37.9304 57.6933 37.2213 58.004 36.605C58.3145 35.9887 58.7442 35.5052 59.293 35.1544C59.8416 34.8038 60.4718 34.6284 61.1832 34.6284C61.7192 34.6284 62.2003 34.7324 62.6262 34.9403C63.0521 35.1483 63.4053 35.4426 63.6861 35.8234V34.8162H65.2942V42.6554ZM63.6557 37.5596C63.4802 37.1136 63.2039 36.7617 62.8254 36.5036C62.4469 36.2456 62.01 36.1165 61.5138 36.1165C60.8124 36.1165 60.2537 36.3521 59.8378 36.823C59.4219 37.294 59.2141 37.9304 59.2141 38.732C59.2141 39.5388 59.4145 40.1776 59.8154 40.6486C60.2161 41.1196 60.7598 41.3551 61.4463 41.3551C61.9521 41.3551 62.4032 41.2249 62.7991 40.9643C63.195 40.7038 63.4802 40.353 63.6557 39.912V37.5596ZM66.3994 34.8162C66.9001 36.1992 67.429 37.5708 67.9853 38.9312C68.5416 40.2916 69.1297 41.6207 69.7512 42.9184C69.4904 43.4946 69.1978 43.9068 68.8719 44.1548C68.546 44.4028 68.1475 44.5268 67.6764 44.5268C67.6164 44.5268 67.5512 44.5242 67.4816 44.5193C67.4112 44.5142 67.3238 44.5042 67.2179 44.4892V45.9398C67.4334 45.9798 67.649 45.9999 67.8645 45.9999C68.6712 45.9999 69.3467 45.7606 69.8904 45.2822C70.4341 44.8036 70.9334 44.0157 71.3897 42.9184C71.8704 41.7561 72.2956 40.6987 72.6637 39.7467C73.0318 38.7948 73.36 37.9166 73.6481 37.1124C73.9363 36.3082 74.1955 35.5428 74.4259 34.8162H72.66C72.0637 36.9408 71.3645 39.0552 70.563 41.1597C70.1223 40.1225 69.7045 39.0715 69.3119 38.0068C68.9178 36.9421 68.5586 35.8786 68.2327 34.8162H66.3994Z" fill="#1C2B33"/>
<path d="M52.9675 22.8305L51.7716 23.7374L50.5789 22.9068C50.5789 22.8196 50.5789 22.7269 50.5735 22.6342C50.5735 22.5469 50.5735 22.4542 50.568 22.3615C50.4917 20.2128 49.9463 17.9115 48.8556 16.2264C48.0158 14.9339 46.9415 14.3177 45.7418 14.3177C44.482 14.3177 43.4568 15.0703 42.3225 16.7063C42.2897 16.7554 42.2516 16.8045 42.2188 16.859C42.197 16.8863 42.1807 16.9135 42.1589 16.9462C42.1043 17.028 42.0498 17.1098 41.9953 17.1971C41.5045 17.9606 40.9918 18.8495 40.4356 19.8311C40.3865 19.9238 40.332 20.0165 40.2829 20.1092C40.2665 20.131 40.2502 20.1583 40.2393 20.1801L40.1247 20.3819L39.4485 21.5762C37.8616 24.3847 37.458 25.0282 36.6673 26.0807C35.2767 27.9294 34.0878 28.6329 32.5227 28.6329C30.6685 28.6329 29.4906 27.8313 28.7653 26.6206C28.1709 25.639 27.8818 24.3465 27.8818 22.8741L30.5922 22.9668C30.5922 23.9266 30.7994 24.6574 31.0775 25.1046C31.4375 25.6826 31.9664 25.9062 32.5172 25.9062C33.2207 25.9062 33.8751 25.759 35.1185 24.0357C36.1165 22.656 37.2944 20.7255 38.0852 19.5094L38.8323 18.3696L38.9904 18.1187L39.154 17.8733L39.4267 17.4534C39.8412 16.8208 40.2883 16.15 40.7682 15.5065C40.8228 15.4302 40.8773 15.3538 40.9373 15.2775C40.9918 15.2012 41.0518 15.1248 41.1064 15.0539C41.5972 14.4268 42.1152 13.8433 42.6715 13.3634C43.6804 12.4854 44.7656 12 45.8617 12C47.6995 12 49.4501 13.0634 50.7916 15.0594C52.1604 17.0989 52.8748 19.6402 52.9566 22.2851C52.9621 22.3724 52.9621 22.4651 52.9621 22.5578C52.9675 22.6505 52.9675 22.7378 52.9675 22.8305Z" fill="#0081FB"/>
<path d="M30.0186 15.2481C31.2603 13.3366 33.0534 12 35.1093 12C36.3003 12 37.4837 12.3517 38.72 13.3595C40.0719 14.4611 41.5133 16.2749 43.3112 19.2645L43.9558 20.3372C45.5122 22.9254 46.3973 24.2565 46.9159 24.8848C47.5824 25.6913 47.9984 25.9062 48.6049 25.9062C50.1427 25.9062 50.5774 24.521 50.5774 22.9063L52.9676 22.8316C52.9676 24.5194 52.6344 25.7595 52.0672 26.7389C51.5197 27.6862 50.4519 28.6329 48.6556 28.6329C47.5387 28.6329 46.5495 28.3908 45.4555 27.3606C44.6146 26.5699 43.6314 25.1651 42.875 23.9026L40.6249 20.1512C39.496 18.2687 38.4604 16.8644 37.8611 16.2291C37.2165 15.5453 36.4203 14.7273 35.0979 14.7273C34.0274 14.7273 33.0861 15.47 32.3253 16.6169L30.0186 15.2481Z" fill="url(#paint0_linear_711_13042)"/>
<path d="M35.1076 14.7267C34.0393 14.7267 33.0991 15.4695 32.34 16.6163C31.2662 18.2371 30.6085 20.6507 30.6085 22.969C30.6085 23.925 30.6069 24.6443 30.8812 25.0882L28.7871 26.6222C28.1949 25.6373 27.8818 24.3792 27.8818 22.9068C27.8818 20.2292 28.6208 17.4038 30.0185 15.2481C31.2586 13.3366 33.0664 12 35.1185 12L35.1076 14.7267Z" fill="url(#paint1_linear_711_13042)"/>
<path opacity="0.05" d="M39.1543 17.8734L38.9907 18.1188L38.8325 18.3696C39.2197 18.9313 39.6614 19.6076 40.125 20.3819L40.2395 20.1802C40.2504 20.1583 40.2668 20.1311 40.2831 20.1093C40.3322 20.0166 40.3867 19.9239 40.4358 19.8311C39.9832 19.0895 39.5469 18.4296 39.1543 17.8734ZM40.9375 15.2775C40.8775 15.3539 40.823 15.4302 40.7685 15.5066C41.1666 16.0028 41.5701 16.5646 41.9955 17.1971C42.05 17.1099 42.1046 17.0281 42.1591 16.9463C42.1809 16.9136 42.1973 16.8863 42.2191 16.859C42.2518 16.8045 42.29 16.7554 42.3227 16.7063C41.9082 16.0956 41.5047 15.5448 41.1066 15.054C41.0521 15.1248 40.9921 15.2012 40.9375 15.2775Z" fill="#000008"/>
<path opacity="0.07" d="M39.1538 17.8734L38.9902 18.1188C39.3774 18.6751 39.8137 19.3404 40.2827 20.1093C40.3318 20.0166 40.3863 19.9239 40.4354 19.8312C39.9828 19.0895 39.5465 18.4297 39.1538 17.8734ZM40.768 15.5066C41.1661 16.0029 41.5697 16.5646 41.9951 17.1972C42.0496 17.1099 42.1041 17.0281 42.1587 16.9463C41.7388 16.3246 41.3297 15.7684 40.9371 15.2776C40.8771 15.3539 40.8226 15.4303 40.768 15.5066Z" fill="#000008"/>
<defs>
<linearGradient id="paint0_linear_711_13042" x1="50.4067" y1="20.3165" x2="34.7167" y2="20.3165" gradientUnits="userSpaceOnUse">
<stop stop-color="#0081FB"/>
<stop offset="0.995" stop-color="#0064E1"/>
</linearGradient>
<linearGradient id="paint1_linear_711_13042" x1="31.5002" y1="24.7446" x2="31.5002" y2="13.9152" gradientUnits="userSpaceOnUse">
<stop stop-color="#0081FB"/>
<stop offset="0.995" stop-color="#0064E1"/>
</linearGradient>
</defs>
</svg>
