<svg width="84" height="58" viewBox="0 0 84 58" fill="none" xmlns="http://www.w3.org/2000/svg">
<rect x="0.5" y="0.5" width="83" height="57" rx="3.5" fill="white" stroke="#F3F3F3"/>
<path d="M22.8551 34.0082V30.7608H24.2503C26.8557 30.7608 28.4238 29.3038 28.4238 27.1306C28.4238 25.0809 26.8433 23.8955 24.559 23.8955H21.1758V34.0082H22.8551ZM24.4849 25.4019C25.8308 25.4019 26.7322 26.0193 26.7322 27.3281C26.7322 28.5382 25.7197 29.2544 24.3985 29.2544H22.8551V25.4019H24.4849ZM51.8102 30.4768C51.8102 28.39 50.2297 26.8095 48.143 26.8095C46.1303 26.8095 44.4881 28.4394 44.4881 30.4521C44.4881 30.4768 44.4881 30.4891 44.4881 30.5138C44.4881 32.6253 46.0068 34.1564 48.143 34.1564C50.1433 34.1811 51.7855 32.5882 51.8102 30.5879C51.8226 30.5509 51.8226 30.5138 51.8102 30.4768ZM46.0809 30.4768C46.0809 29.2667 46.9699 28.3036 48.143 28.3407C49.4395 28.3777 50.2421 29.2791 50.2174 30.4768C50.1927 31.6869 49.316 32.6129 48.143 32.6129C46.9699 32.6129 46.0809 31.6745 46.0809 30.4768ZM67.6769 30.8966C67.7139 30.6497 67.7263 30.4027 67.7263 30.1558C67.7263 28.1801 66.2199 26.7972 64.306 26.7972C62.318 26.7725 60.6882 28.3653 60.6635 30.3533C60.6635 30.378 60.6635 30.4151 60.6635 30.4397C60.6635 32.5882 62.0958 34.144 64.2566 34.144C65.7136 34.144 66.936 33.4526 67.4423 32.4895L66.1952 31.798C65.8618 32.3413 65.158 32.7117 64.3554 32.7117C63.2441 32.7117 62.4539 32.0326 62.2933 30.8843L67.6769 30.8966ZM62.4045 29.6742C62.6144 28.7358 63.3058 28.1678 64.269 28.1678C65.2444 28.1678 65.9853 28.7852 66.0717 29.6742H62.4045ZM42.7224 26.933L40.7714 31.9709L39.0304 26.933H37.203L39.8207 34.0082L38.7341 36.4901H40.4628L44.451 26.933H42.7224ZM81 26.9701C80.7777 26.9083 80.5431 26.8713 80.3085 26.8836C79.617 26.8836 78.8391 27.2788 78.5058 27.9579V26.9454H76.9129V34.0206H78.5058V30.2298C78.5058 28.921 79.3824 28.3777 80.2838 28.3777C80.5184 28.3777 80.7654 28.4024 80.9876 28.4518C80.9876 28.4641 81 26.9701 81 26.9701ZM75.7399 30.8966C75.7769 30.6497 75.7893 30.4027 75.7893 30.1558C75.7893 28.1801 74.2829 26.7972 72.369 26.7972C70.381 26.7725 68.7511 28.3653 68.7264 30.3533C68.7264 30.378 68.7264 30.4151 68.7264 30.4397C68.7264 32.5882 70.1588 34.144 72.3196 34.144C73.7766 34.144 74.999 33.4526 75.5053 32.4895L74.2582 31.798C73.9248 32.3413 73.221 32.7117 72.4184 32.7117C71.3071 32.7117 70.5169 32.0326 70.3563 30.8843L75.7399 30.8966ZM70.4551 29.6742C70.665 28.7358 71.3565 28.1678 72.3196 28.1678C73.2951 28.1678 74.0359 28.7852 74.1224 29.6742H70.4551ZM34.6717 30.4644C34.6964 31.6745 33.7457 32.6747 32.5356 32.7117C32.4985 32.7117 32.4739 32.7117 32.4368 32.7117C31.202 32.7117 30.3748 31.7486 30.3748 30.4644C30.3871 29.242 31.3626 28.2542 32.585 28.2419C33.8321 28.2295 34.6717 29.1926 34.6717 30.4644ZM59.5892 29.9829C59.5892 28.0073 58.6261 26.8095 56.8233 26.8095C55.8726 26.8095 54.9959 27.217 54.5143 27.8591V26.9454H52.9092V34.0206H54.5143V30.1804C54.5143 28.9951 55.3663 28.2419 56.3912 28.2419C57.416 28.2419 57.9593 28.9333 57.9593 30.1064V34.0206H59.5892V29.9829ZM34.6717 26.933V27.8467C34.2025 27.2294 33.4493 26.7972 32.3257 26.7972C30.3748 26.7972 28.7449 28.5259 28.7449 30.5632C28.7449 32.6129 30.1402 34.144 32.0293 34.144C33.2517 34.144 34.1655 33.7119 34.6841 32.9834V34.0082H36.2646V26.933H34.6717Z" fill="#000008"/>
<mask id="mask0_711_13043" style="mask-type:alpha" maskUnits="userSpaceOnUse" x="3" y="21" width="16" height="16">
<path d="M18.1117 29.0334C18.1117 33.2064 14.7288 36.5892 10.5558 36.5892C6.38287 36.5892 3 33.2064 3 29.0334C3 24.8604 6.38287 21.4775 10.5558 21.4775C14.7288 21.4775 18.1117 24.8604 18.1117 29.0334ZM4.68123 29.0334C4.68123 32.2778 7.31138 34.908 10.5558 34.908C13.8003 34.908 16.4305 32.2778 16.4305 29.0334C16.4305 25.7889 13.8003 23.1588 10.5558 23.1588C7.31138 23.1588 4.68123 25.7889 4.68123 29.0334Z" fill="#F6F8FC"/>
</mask>
<g mask="url(#mask0_711_13043)">
<path d="M18.1117 29.0334C18.1117 33.2064 14.7288 36.5892 10.5558 36.5892C6.38287 36.5892 3 33.2064 3 29.0334C3 24.8604 6.38287 21.4775 10.5558 21.4775C14.7288 21.4775 18.1117 24.8604 18.1117 29.0334ZM4.30026 29.0334C4.30026 32.4883 7.10098 35.289 10.5558 35.289C14.0107 35.289 16.8114 32.4883 16.8114 29.0334C16.8114 25.5785 14.0107 22.7778 10.5558 22.7778C7.10098 22.7778 4.30026 25.5785 4.30026 29.0334Z" fill="white"/>
<g filter="url(#filter0_f_711_13043)">
<circle cx="4.49192" cy="27.9431" r="9.5261" fill="#FE4800"/>
</g>
<g filter="url(#filter1_f_711_13043)">
<circle cx="12.496" cy="35.3732" r="5.6703" fill="#E248CF"/>
</g>
<g filter="url(#filter2_f_711_13043)">
<circle cx="16.7729" cy="33.1462" r="4.78218" fill="#2490E1"/>
</g>
<g filter="url(#filter3_f_711_13043)">
<circle cx="19.4535" cy="24.7321" r="6.12392" fill="#2CD87B"/>
</g>
<g filter="url(#filter4_f_711_13043)">
<circle cx="13.6793" cy="19.7233" r="5.89711" fill="#FBD600"/>
</g>
</g>
<defs>
<filter id="filter0_f_711_13043" x="-9.57042" y="13.8808" width="28.1247" height="28.1247" filterUnits="userSpaceOnUse" color-interpolation-filters="sRGB">
<feFlood flood-opacity="0" result="BackgroundImageFix"/>
<feBlend mode="normal" in="SourceGraphic" in2="BackgroundImageFix" result="shape"/>
<feGaussianBlur stdDeviation="2.26812" result="effect1_foregroundBlur_711_13043"/>
</filter>
<filter id="filter1_f_711_13043" x="2.28944" y="25.1666" width="20.4133" height="20.4131" filterUnits="userSpaceOnUse" color-interpolation-filters="sRGB">
<feFlood flood-opacity="0" result="BackgroundImageFix"/>
<feBlend mode="normal" in="SourceGraphic" in2="BackgroundImageFix" result="shape"/>
<feGaussianBlur stdDeviation="2.26812" result="effect1_foregroundBlur_711_13043"/>
</filter>
<filter id="filter2_f_711_13043" x="7.45448" y="23.8278" width="18.6369" height="18.6369" filterUnits="userSpaceOnUse" color-interpolation-filters="sRGB">
<feFlood flood-opacity="0" result="BackgroundImageFix"/>
<feBlend mode="normal" in="SourceGraphic" in2="BackgroundImageFix" result="shape"/>
<feGaussianBlur stdDeviation="2.26812" result="effect1_foregroundBlur_711_13043"/>
</filter>
<filter id="filter3_f_711_13043" x="8.79335" y="14.0719" width="21.3205" height="21.3203" filterUnits="userSpaceOnUse" color-interpolation-filters="sRGB">
<feFlood flood-opacity="0" result="BackgroundImageFix"/>
<feBlend mode="normal" in="SourceGraphic" in2="BackgroundImageFix" result="shape"/>
<feGaussianBlur stdDeviation="2.26812" result="effect1_foregroundBlur_711_13043"/>
</filter>
<filter id="filter4_f_711_13043" x="3.24599" y="9.28993" width="20.8669" height="20.8667" filterUnits="userSpaceOnUse" color-interpolation-filters="sRGB">
<feFlood flood-opacity="0" result="BackgroundImageFix"/>
<feBlend mode="normal" in="SourceGraphic" in2="BackgroundImageFix" result="shape"/>
<feGaussianBlur stdDeviation="2.26812" result="effect1_foregroundBlur_711_13043"/>
</filter>
</defs>
</svg>
