<svg xmlns="http://www.w3.org/2000/svg" width="16" height="16" viewBox="0 0 16 16" fill="none">
  <path d="M9.8135 5.85998L6.9535 8.72665L5.8535 7.62665C5.79373 7.55686 5.72019 7.50018 5.63748 7.46016C5.55477 7.42015 5.46468 7.39766 5.37287 7.39411C5.28106 7.39057 5.1895 7.40604 5.10395 7.43956C5.0184 7.47307 4.9407 7.52391 4.87573 7.58888C4.81076 7.65385 4.75992 7.73155 4.72641 7.8171C4.69289 7.90265 4.67742 7.9942 4.68097 8.08602C4.68451 8.17783 4.707 8.26792 4.74702 8.35063C4.78703 8.43334 4.84371 8.50688 4.9135 8.56665L6.48017 10.14C6.54246 10.2018 6.61634 10.2507 6.69756 10.2838C6.77879 10.317 6.86576 10.3338 6.9535 10.3333C7.12839 10.3326 7.29599 10.2631 7.42017 10.14L10.7535 6.80665C10.816 6.74467 10.8656 6.67094 10.8994 6.5897C10.9333 6.50846 10.9507 6.42132 10.9507 6.33331C10.9507 6.24531 10.9333 6.15817 10.8994 6.07693C10.8656 5.99569 10.816 5.92196 10.7535 5.85998C10.6286 5.73581 10.4596 5.66612 10.2835 5.66612C10.1074 5.66612 9.93841 5.73581 9.8135 5.85998ZM8.00017 1.33331C6.68162 1.33331 5.39269 1.72431 4.29636 2.45685C3.20004 3.18939 2.34555 4.23058 1.84097 5.44876C1.33638 6.66693 1.20436 8.00738 1.4616 9.30058C1.71883 10.5938 2.35377 11.7817 3.28612 12.714C4.21847 13.6464 5.40636 14.2813 6.69956 14.5385C7.99277 14.7958 9.33322 14.6638 10.5514 14.1592C11.7696 13.6546 12.8108 12.8001 13.5433 11.7038C14.2758 10.6075 14.6668 9.31852 14.6668 7.99998C14.6668 7.1245 14.4944 6.25759 14.1594 5.44876C13.8243 4.63992 13.3333 3.90499 12.7142 3.28593C12.0952 2.66688 11.3602 2.17581 10.5514 1.84078C9.74255 1.50575 8.87565 1.33331 8.00017 1.33331ZM8.00017 13.3333C6.94533 13.3333 5.91419 13.0205 5.03712 12.4345C4.16006 11.8484 3.47648 11.0155 3.07281 10.041C2.66914 9.06642 2.56352 7.99406 2.76931 6.9595C2.9751 5.92493 3.48305 4.97462 4.22893 4.22874C4.97481 3.48286 5.92512 2.97491 6.95968 2.76912C7.99425 2.56334 9.06661 2.66895 10.0411 3.07262C11.0157 3.47629 11.8486 4.15988 12.4347 5.03694C13.0207 5.914 13.3335 6.94515 13.3335 7.99998C13.3335 9.41447 12.7716 10.771 11.7714 11.7712C10.7712 12.7714 9.41465 13.3333 8.00017 13.3333Z" fill="#07BD3A"/>
</svg>